HIERARCHY
ROOT Pelvis
{
	OFFSET 0.000000 0.000000 0.000000
	CHANNELS 6 Xposition Yposition Zposition Xrotation Yrotation Zrotation
	JOINT LeftUpLeg_virtual
	{
		OFFSET 0.000000 0.000000 0.000000
		CHANNELS 3 Xrotation Yrotation Zrotation
		JOINT LeftUpLeg
		{
			OFFSET 18.735201 -5.666702 -4.541200
			CHANNELS 3 Xrotation Yrotation Zrotation
			JOINT LeftLeg
			{
				OFFSET -0.021200 -31.938179 0.493100
				CHANNELS 3 Xrotation Yrotation Zrotation
				JOINT LeftFoot
				{
					OFFSET 0.021200 -31.938179 -4.336299
					CHANNELS 3 Xrotation Yrotation Zrotation
					JOINT LeftToeBase
					{
						OFFSET 0.943001 -26.722000 15.023500
						CHANNELS 3 Xrotation Yrotation Zrotation
						End Site
						{
							OFFSET 0 0 0
						}
					}
				}
			}
		}
	}
	JOINT RightUpLeg_virtual
	{
		OFFSET 0.000000 0.000000 0.000000
		CHANNELS 3 Xrotation Yrotation Zrotation
		JOINT RightUpLeg
		{
			OFFSET -18.735201 -5.666702 -4.541200
			CHANNELS 3 Xrotation Yrotation Zrotation
			JOINT RightLeg
			{
				OFFSET 0.018946 -31.938133 0.493100
				CHANNELS 3 Xrotation Yrotation Zrotation
				JOINT RightFoot
				{
					OFFSET -0.018946 -31.938126 -4.336299
					CHANNELS 3 Xrotation Yrotation Zrotation
					JOINT RightToeBase
					{
						OFFSET -0.943001 -26.722004 15.023500
						CHANNELS 3 Xrotation Yrotation Zrotation
						End Site
						{
							OFFSET 0 0 0
						}
					}
				}
			}
		}
	}
	JOINT Hips_virtual
	{
		OFFSET 0.000000 0.000000 0.000000
		CHANNELS 3 Xrotation Yrotation Zrotation
		JOINT Hips
		{
			OFFSET -0.000000 -0.000000 -0.000000
			CHANNELS 3 Xrotation Yrotation Zrotation
			JOINT Spine
			{
				OFFSET 0.000000 10.199997 -0.299500
				CHANNELS 3 Xrotation Yrotation Zrotation
				JOINT Spine1
				{
					OFFSET 0.000000 11.900002 -1.516600
					CHANNELS 3 Xrotation Yrotation Zrotation
					JOINT Spine2
					{
						OFFSET 0.000000 13.600006 -2.842500
						CHANNELS 3 Xrotation Yrotation Zrotation
						JOINT Neck_virtual
						{
							OFFSET 0.000000 0.000000 0.000000
							CHANNELS 3 Xrotation Yrotation Zrotation
							JOINT Neck
							{
								OFFSET 0.000000 9.624100 -2.890100
								CHANNELS 3 Xrotation Yrotation Zrotation
								JOINT Head
								{
									OFFSET 0.000000 14.068802 -1.351900
									CHANNELS 3 Xrotation Yrotation Zrotation
									End Site
									{
										OFFSET 0 0 0
									}
								}
							}
						}
						JOINT LeftShoulder_virtual
						{
							OFFSET 0.000000 0.000000 0.000000
							CHANNELS 3 Xrotation Yrotation Zrotation
							JOINT LeftShoulder
							{
								OFFSET 15.263000 10.923401 -0.547700
								CHANNELS 3 Xrotation Yrotation Zrotation
								JOINT LeftArm
								{
									OFFSET 25.438599 -2.830597 -13.032500
									CHANNELS 3 Xrotation Yrotation Zrotation
									JOINT LeftForeArm
									{
										OFFSET 29.960503 0.000000 0.000000
										CHANNELS 3 Xrotation Yrotation Zrotation
										JOINT LeftHand
										{
											OFFSET 27.849251 0.000000 0.000000
											CHANNELS 3 Xrotation Yrotation Zrotation
											End Site
											{
												OFFSET 0 0 0
											}
										}
									}
								}
							}
						}
						JOINT RightShoulder_virtual
						{
							OFFSET 0.000000 0.000000 0.000000
							CHANNELS 3 Xrotation Yrotation Zrotation
							JOINT RightShoulder
							{
								OFFSET -15.263000 10.923401 -0.547700
								CHANNELS 3 Xrotation Yrotation Zrotation
								JOINT RightArm
								{
									OFFSET -25.438599 -2.830597 -13.032500
									CHANNELS 3 Xrotation Yrotation Zrotation
									JOINT RightForeArm
									{
										OFFSET -29.960503 0.000000 0.000000
										CHANNELS 3 Xrotation Yrotation Zrotation
										JOINT RightHand
										{
											OFFSET -27.849251 0.000000 0.000000
											CHANNELS 3 Xrotation Yrotation Zrotation
											End Site
											{
												OFFSET 0 0 0
											}
										}
									}
								}
							}
						}
					}
				}
			}
		}
	}
}
MOTION
Frames: 11
Frame Time: 0.03333333
1.475055 62.760529 -10.467991 0.000000 0.000000 0.000000 -176.078493 60.246968 173.604079 -85.129722 -10.147441 27.634758 125.142425 -13.185886 6.429153 -35.453668 13.716587 -12.819424 0.000000 0.000000 0.000000 -175.836977 59.980058 173.568357 -45.614578 6.939941 -29.432491 96.146565 3.980084 0.599800 -35.109361 23.639703 14.380302 0.000000 0.000000 0.000000 -176.259766 59.605886 173.800174 -0.725925 -0.459647 0.154934 12.819655 3.917997 -2.880320 2.478019 1.372103 0.965086 0.000000 0.000000 0.000000 -0.629111 8.936970 -2.061455 -0.256950 5.747210 2.381821 0.000000 0.000000 0.000000 2.711906 7.410590 -2.580934 -5.664196 -6.188772 -18.263557 20.899467 2.486129 -29.719902 18.469243 -58.178397 -12.759463 0.000000 0.000000 0.000000 -2.464814 9.840021 -1.360789 8.559164 -21.036493 13.689860 31.795456 -2.030659 52.708706 27.332315 60.712063 -14.874916 0.000000 0.000000 0.000000 
1.468766 62.768551 -10.457951 0.000000 0.000000 0.000000 -176.083807 60.237269 173.606456 -85.130098 -10.162771 27.638893 125.137890 -13.191182 6.419424 -35.423461 13.715612 -12.847792 0.000000 0.000000 0.000000 -175.843876 59.953351 173.572961 -45.605071 6.926208 -29.433922 96.144167 3.980080 0.597723 -35.125747 23.614998 14.403006 0.000000 0.000000 0.000000 -176.264793 59.581489 173.800215 -0.726841 -0.457656 0.155722 12.816402 3.914545 -2.876600 2.471652 1.368367 0.967770 0.000000 0.000000 0.000000 -0.640748 8.931680 -2.058541 -0.254171 5.748583 2.381607 0.000000 0.000000 0.000000 2.710653 7.404485 -2.581505 -5.667328 -6.203632 -18.262334 20.894151 2.480162 -29.703970 18.458993 -58.149656 -12.785055 0.000000 0.000000 0.000000 -2.454326 9.838776 -1.359536 8.556485 -21.033598 13.692716 31.805749 -2.024035 52.755674 27.333809 60.658179 -14.906702 0.000000 0.000000 0.000000 
1.458669 62.781830 -10.449219 0.000000 0.000000 0.000000 -176.105499 60.220453 173.616619 -85.142133 -10.184617 27.636060 125.127768 -13.192031 6.406768 -35.363752 13.698874 -12.890264 0.000000 0.000000 0.000000 -175.870910 59.914153 173.585925 -45.610822 6.899323 -29.435079 96.143177 3.979843 0.596726 -35.146716 23.583878 14.426994 0.000000 0.000000 0.000000 -176.284765 59.552747 173.805092 -0.727708 -0.456429 0.155698 12.809858 3.900429 -2.874594 2.461302 1.357145 0.976186 0.000000 0.000000 0.000000 -0.660783 8.921244 -2.049197 -0.241021 5.749785 2.380612 0.000000 0.000000 0.000000 2.706595 7.392358 -2.577880 -5.664885 -6.219911 -18.263919 20.873932 2.480387 -29.669051 18.441219 -58.104276 -12.822924 0.000000 0.000000 0.000000 -2.452594 9.830978 -1.353842 8.552090 -21.028920 13.647900 31.771356 -1.944722 52.850576 27.296718 60.507273 -14.928823 0.000000 0.000000 0.000000 
1.446338 62.797028 -10.445133 0.000000 0.000000 0.000000 -176.140292 60.194799 173.630703 -85.168832 -10.212603 27.628783 125.111102 -13.191197 6.394251 -35.293903 13.667647 -12.952603 0.000000 0.000000 0.000000 -175.911222 59.873220 173.600828 -45.616801 6.862738 -29.431859 96.134154 3.980681 0.594663 -35.177301 23.547432 14.458027 0.000000 0.000000 0.000000 -176.315801 59.521424 173.811594 -0.728175 -0.456404 0.154864 12.805756 3.878985 -2.876315 2.452358 1.343315 0.988643 0.000000 0.000000 0.000000 -0.678618 8.910184 -2.036497 -0.217585 5.749705 2.378772 0.000000 0.000000 0.000000 2.701351 7.379006 -2.571724 -5.656811 -6.235830 -18.268043 20.839667 2.469280 -29.619313 18.422765 -58.052442 -12.864290 0.000000 0.000000 0.000000 -2.457760 9.821456 -1.345407 8.547370 -21.023319 13.562649 31.707702 -1.797499 52.992047 27.233460 60.276611 -14.952324 0.000000 0.000000 0.000000 
1.432606 62.811691 -10.445786 0.000000 0.000000 0.000000 -176.180795 60.159596 173.641563 -85.214731 -10.248915 27.618860 125.088207 -13.192666 6.385637 -35.232318 13.621128 -13.044176 0.000000 0.000000 0.000000 -175.954825 59.836118 173.609352 -45.604490 6.818226 -29.420709 96.112974 3.984090 0.587559 -35.216315 23.508024 14.502285 0.000000 0.000000 0.000000 -176.352862 59.487697 173.815938 -0.727764 -0.456820 0.153936 12.808306 3.855071 -2.881985 2.448276 1.335543 1.003450 0.000000 0.000000 0.000000 -0.685018 8.904352 -2.023767 -0.185084 5.746787 2.375331 0.000000 0.000000 0.000000 2.697520 7.372975 -2.564314 -5.643631 -6.241706 -18.275826 20.791236 2.438290 -29.557896 18.409863 -58.001748 -12.900708 0.000000 0.000000 0.000000 -2.465391 9.817009 -1.336565 8.541234 -21.021234 13.445999 31.635787 -1.600684 53.169321 27.168015 60.000534 -15.000272 0.000000 0.000000 0.000000 
1.419119 62.824814 -10.449814 0.000000 0.000000 0.000000 -176.221613 60.114517 173.645170 -85.282910 -10.295796 27.607824 125.058578 -13.199122 6.381938 -35.183028 13.559470 -13.169149 0.000000 0.000000 0.000000 -175.993252 59.799720 173.605705 -45.558345 6.768288 -29.403749 96.077293 3.989455 0.575890 -35.263908 23.467620 14.557196 0.000000 0.000000 0.000000 -176.390482 59.447357 173.814695 -0.727201 -0.456858 0.153350 12.820998 3.832934 -2.891990 2.452707 1.341410 1.019637 0.000000 0.000000 0.000000 -0.672004 8.909437 -2.014438 -0.147062 5.740018 2.370183 0.000000 0.000000 0.000000 2.698075 7.380762 -2.556985 -5.625742 -6.228798 -18.284188 20.733794 2.374990 -29.493252 18.405287 -57.959804 -12.925471 0.000000 0.000000 0.000000 -2.469410 9.822919 -1.329118 8.531722 -21.029767 13.311231 31.575821 -1.371760 53.372874 27.118026 59.705422 -15.087181 0.000000 0.000000 0.000000 
1.408068 62.835236 -10.457447 0.000000 0.000000 0.000000 -176.257471 60.055606 173.639023 -85.372003 -10.354786 27.592410 125.022651 -13.210920 6.383609 -35.135900 13.481990 -13.327765 0.000000 0.000000 0.000000 -176.022991 59.753787 173.590200 -45.476322 6.707599 -29.384973 96.032706 3.994039 0.562432 -35.319356 23.424069 14.613072 0.000000 0.000000 0.000000 -176.424715 59.395489 173.806280 -0.727097 -0.456392 0.153803 12.840766 3.814537 -2.902875 2.467681 1.363224 1.035037 0.000000 0.000000 0.000000 -0.641974 8.929249 -2.009114 -0.106862 5.728255 2.363343 0.000000 0.000000 0.000000 2.707077 7.404701 -2.549981 -5.604643 -6.197437 -18.291127 20.661338 2.282969 -29.431357 18.414704 -57.932531 -12.929793 0.000000 0.000000 0.000000 -2.462700 9.843042 -1.324654 8.521228 -21.053840 13.171064 31.534785 -1.123629 53.605066 27.087130 59.400776 -15.212710 0.000000 0.000000 0.000000 
1.399342 62.844513 -10.466003 0.000000 0.000000 0.000000 -176.284642 59.982851 173.622644 -85.472072 -10.425036 27.567436 124.980523 -13.226908 6.389845 -35.081002 13.387440 -13.514744 0.000000 0.000000 0.000000 -176.045353 59.690225 173.567866 -45.367667 6.634642 -29.365828 95.987326 3.996972 0.549027 -35.382439 23.377813 14.665051 0.000000 0.000000 0.000000 -176.450725 59.330165 173.787046 -0.727183 -0.455440 0.154543 12.865458 3.799812 -2.912155 2.493208 1.400408 1.048945 0.000000 0.000000 0.000000 -0.601085 8.964565 -2.006718 -0.068152 5.710925 2.355173 0.000000 0.000000 0.000000 2.728993 7.444379 -2.543039 -5.581642 -6.151501 -18.294023 20.571065 2.166004 -29.373830 18.439074 -57.931909 -12.908622 0.000000 0.000000 0.000000 -2.443197 9.877773 -1.322111 8.510852 -21.095162 13.036430 31.508916 -0.862496 53.861840 27.073379 59.087536 -15.368692 0.000000 0.000000 0.000000 
1.391947 62.855019 -10.471302 0.000000 0.000000 0.000000 -176.303138 59.896360 173.598301 -85.568863 -10.504298 27.527939 124.930198 -13.244213 6.399851 -35.011563 13.278396 -13.716580 0.000000 0.000000 0.000000 -176.062196 59.605101 173.542539 -45.242722 6.554338 -29.347868 95.941748 4.000425 0.536629 -35.443211 23.334708 14.715479 0.000000 0.000000 0.000000 -176.467281 59.252642 173.758496 -0.726815 -0.454192 0.154989 12.890693 3.788486 -2.920309 2.527748 1.448329 1.062149 0.000000 0.000000 0.000000 -0.556852 9.012389 -2.004176 -0.032938 5.687710 2.346205 0.000000 0.000000 0.000000 2.764348 7.495148 -2.535098 -5.556912 -6.097526 -18.295463 20.469698 2.025774 -29.318338 18.475358 -57.949975 -12.862317 0.000000 0.000000 0.000000 -2.412229 9.925043 -1.320026 8.501577 -21.150979 12.912859 31.493510 -0.592080 54.132381 27.070036 58.765165 -15.542372 0.000000 0.000000 0.000000 
1.385746 62.869095 -10.474827 0.000000 0.000000 0.000000 -176.314804 59.799426 173.570529 -85.650087 -10.589890 27.474062 124.870789 -13.259186 6.413084 -34.928156 13.161837 -13.914064 0.000000 0.000000 0.000000 -176.074190 59.504267 173.516707 -45.111238 6.470709 -29.331776 95.896450 4.006890 0.524217 -35.489164 23.299947 14.767619 0.000000 0.000000 0.000000 -176.477321 59.164909 173.727118 -0.726256 -0.453003 0.154818 12.912728 3.778685 -2.930290 2.568999 1.501164 1.076067 0.000000 0.000000 0.000000 -0.515404 9.067008 -1.998988 -0.001659 5.659480 2.336894 0.000000 0.000000 0.000000 2.809541 7.551939 -2.524387 -5.531762 -6.041701 -18.301845 20.367055 1.871081 -29.258389 18.523374 -57.975568 -12.790977 0.000000 0.000000 0.000000 -2.374078 9.979138 -1.316524 8.495773 -21.216506 12.800920 31.481465 -0.327353 54.403188 27.074260 58.440663 -15.723340 0.000000 0.000000 0.000000 
1.380545 62.888126 -10.477219 0.000000 0.000000 0.000000 -176.320760 59.700272 173.542007 -85.709585 -10.676483 27.409004 124.805096 -13.268926 6.427078 -34.837486 13.045371 -14.091759 0.000000 0.000000 0.000000 -176.083110 59.399396 173.493676 -44.982513 6.391605 -29.321626 95.849267 4.017020 0.512821 -35.515187 23.276069 14.817665 0.000000 0.000000 0.000000 -176.482977 59.070481 173.696915 -0.725831 -0.451971 0.154052 12.931943 3.769741 -2.945774 2.613635 1.554451 1.091833 0.000000 0.000000 0.000000 -0.479485 9.122429 -1.990017 0.026009 5.627737 2.327666 0.000000 0.000000 0.000000 2.858393 7.608796 -2.509730 -5.507396 -5.990140 -18.318059 20.275910 1.708495 -29.192249 18.574575 -57.997165 -12.704292 0.000000 0.000000 0.000000 -2.335354 10.033457 -1.310430 8.494581 -21.284586 12.702510 31.468280 -0.079697 54.652442 27.085887 58.129691 -15.905349 0.000000 0.000000 0.000000 
